<?xml version="1.0" encoding="UTF-8"?>
<svg id="Layer_1" data-name="Layer 1" xmlns="http://www.w3.org/2000/svg" viewBox="0 0 538.52 100">
  <defs>
    <style>
      .cls-1 {
        fill: #fff;
      }
    </style>
  </defs>
  <path class="cls-1" d="M461.06,1.06l.1-.31c.31-1,1.73-1,2.04,0l.1.31c3.46,11,12.07,19.62,23.08,23.08l.31.1c1,.31,1,1.73,0,2.04l-.31.1c-11,3.46-19.62,12.07-23.08,23.08l-.1.31c-.31,1-1.73,1-2.04,0l-.1-.31c-3.46-11-12.07-19.62-23.08-23.08l-.31-.1c-1-.31-1-1.73,0-2.04l.31-.1c11-3.46,19.62-12.07,23.08-23.08Z"/>
  <g>
    <path class="cls-1" d="M21.62,84.66c-5,0-9.25-.86-12.73-2.57-3.48-1.72-6.44-3.94-8.89-6.66l8.16-8.25c3.86,4.31,8.62,6.47,14.28,6.47,3.05,0,5.3-.62,6.77-1.86,1.47-1.24,2.2-2.88,2.2-4.93,0-1.56-.44-2.87-1.31-3.92-.87-1.05-2.64-1.77-5.3-2.14l-5.63-.73c-6.04-.76-10.46-2.59-13.26-5.47-2.8-2.89-4.2-6.72-4.2-11.52,0-2.56.49-4.9,1.47-7.03.98-2.12,2.38-3.95,4.2-5.47,1.82-1.52,4.05-2.71,6.69-3.55,2.64-.84,5.64-1.27,9.01-1.27,4.3,0,8.08.68,11.34,2.04,3.26,1.36,6.06,3.35,8.4,5.96l-8.24,8.34c-1.36-1.56-3.01-2.84-4.94-3.84-1.93-1-4.36-1.49-7.3-1.49-2.77,0-4.84.48-6.2,1.45-1.36.97-2.04,2.32-2.04,4.04,0,1.94.53,3.34,1.59,4.2,1.06.86,2.79,1.48,5.18,1.86l5.63.9c5.87.93,10.22,2.74,13.05,5.43,2.83,2.69,4.24,6.52,4.24,11.47,0,2.72-.49,5.23-1.47,7.51-.98,2.29-2.41,4.25-4.28,5.88-1.88,1.63-4.2,2.9-6.98,3.8-2.77.9-5.93,1.35-9.46,1.35Z"/>
    <path class="cls-1" d="M58.25,36.28c-2.45,0-4.23-.56-5.34-1.67-1.12-1.11-1.67-2.54-1.67-4.28v-1.79c0-1.74.56-3.17,1.67-4.28,1.11-1.11,2.9-1.67,5.34-1.67s4.23.56,5.34,1.67c1.11,1.12,1.67,2.54,1.67,4.28v1.79c0,1.74-.56,3.17-1.67,4.28-1.12,1.12-2.9,1.67-5.34,1.67ZM52.21,40.85h12.07v42.83h-12.07v-42.83Z"/>
    <path class="cls-1" d="M90.56,83.68c-4.19,0-7.36-1.06-9.5-3.18-2.15-2.12-3.22-5.22-3.22-9.3v-20.97h-6.04v-9.38h3.02c1.63,0,2.75-.39,3.34-1.18.6-.79.9-1.92.9-3.39v-7.02h10.85v11.58h8.48v9.38h-8.48v24.07h7.83v9.38h-7.18Z"/>
    <path class="cls-1" d="M124.33,84.66c-3.26,0-6.17-.53-8.73-1.59-2.56-1.06-4.72-2.56-6.49-4.49-1.77-1.93-3.1-4.28-4-7.06-.9-2.77-1.35-5.87-1.35-9.3s.43-6.43,1.31-9.18c.87-2.75,2.16-5.1,3.87-7.06,1.71-1.96,3.82-3.47,6.32-4.53,2.5-1.06,5.36-1.59,8.57-1.59,3.53,0,6.57.6,9.1,1.79,2.53,1.2,4.6,2.8,6.2,4.81,1.6,2.01,2.77,4.34,3.51,6.98.73,2.64,1.1,5.4,1.1,8.28v3.59h-27.49v.65c0,2.8.76,5.03,2.28,6.67,1.52,1.65,3.92,2.47,7.18,2.47,2.5,0,4.54-.5,6.12-1.5,1.58-1,3.05-2.2,4.41-3.6l6.04,7.53c-1.9,2.24-4.39,3.98-7.46,5.24-3.07,1.25-6.57,1.88-10.48,1.88ZM124.09,48.77c-2.45,0-4.36.8-5.75,2.41-1.39,1.61-2.08,3.74-2.08,6.4v.65h15.01v-.73c0-2.61-.59-4.72-1.75-6.32-1.17-1.6-2.98-2.41-5.43-2.41Z"/>
    <path class="cls-1" d="M157.13,36.28c-2.45,0-4.23-.56-5.34-1.67-1.12-1.11-1.67-2.54-1.67-4.28v-1.79c0-1.74.56-3.17,1.67-4.28,1.11-1.11,2.9-1.67,5.34-1.67s4.23.56,5.34,1.67c1.11,1.12,1.67,2.54,1.67,4.28v1.79c0,1.74-.56,3.17-1.67,4.28-1.12,1.12-2.9,1.67-5.34,1.67ZM151.09,40.85h12.07v42.83h-12.07v-42.83Z"/>
    <path class="cls-1" d="M172.79,83.68v-42.83h12.07v7.26h.49c.76-2.28,2.07-4.23,3.92-5.83,1.85-1.6,4.38-2.41,7.59-2.41,2.94,0,5.44.73,7.51,2.2,2.07,1.47,3.56,3.62,4.49,6.45h.24c.38-1.2.96-2.33,1.75-3.39.79-1.06,1.75-1.97,2.9-2.73,1.14-.76,2.42-1.37,3.83-1.84,1.41-.46,2.94-.69,4.57-.69,4.13,0,7.3,1.47,9.5,4.41,2.2,2.94,3.3,7.13,3.3,12.56v26.84h-12.07v-25.86c0-5.44-1.96-8.16-5.87-8.16-1.79,0-3.43.52-4.89,1.55-1.47,1.03-2.2,2.61-2.2,4.73v27.74h-12.07v-25.86c0-5.44-1.96-8.16-5.87-8.16-.87,0-1.73.12-2.57.37-.84.24-1.61.64-2.28,1.18-.68.54-1.22,1.21-1.63,2-.41.79-.61,1.7-.61,2.73v27.74h-12.07Z"/>
    <path class="cls-1" d="M244.91,40.85h12.07v7.18h.41c.6-2.39,1.97-4.35,4.12-5.87,2.15-1.52,4.61-2.28,7.38-2.28,5.44,0,9.55,1.9,12.32,5.71,2.77,3.81,4.16,9.36,4.16,16.64s-1.39,12.85-4.16,16.68c-2.77,3.83-6.88,5.75-12.32,5.75-1.42,0-2.75-.2-4-.61-1.25-.41-2.38-.98-3.39-1.71-1.01-.73-1.86-1.6-2.57-2.61-.71-1.01-1.22-2.08-1.55-3.22h-.41v23.5h-12.07v-59.15ZM264.9,74.87c2.28,0,4.17-.8,5.67-2.41,1.5-1.6,2.24-3.77,2.24-6.49v-7.42c0-2.72-.75-4.88-2.24-6.49-1.5-1.6-3.39-2.41-5.67-2.41s-4.17.56-5.67,1.67c-1.5,1.12-2.24,2.65-2.24,4.61v12.64c0,1.96.75,3.5,2.24,4.61,1.5,1.12,3.39,1.67,5.67,1.67Z"/>
    <path class="cls-1" d="M293.29,83.68v-42.83h12.07v9.3h.41c.22-1.2.6-2.35,1.14-3.47.54-1.11,1.26-2.11,2.16-2.98.9-.87,1.97-1.56,3.22-2.08,1.25-.52,2.72-.77,4.41-.77h2.12v11.26h-3.02c-3.54,0-6.16.46-7.87,1.39-1.71.93-2.57,2.64-2.57,5.14v25.05h-12.07Z"/>
    <path class="cls-1" d="M342.81,84.66c-3.16,0-5.97-.52-8.44-1.55-2.48-1.03-4.57-2.53-6.28-4.49-1.71-1.96-3.03-4.32-3.96-7.1-.93-2.77-1.39-5.87-1.39-9.3s.46-6.53,1.39-9.3c.92-2.77,2.24-5.13,3.96-7.06,1.71-1.93,3.81-3.41,6.28-4.45,2.47-1.03,5.29-1.55,8.44-1.55s5.97.52,8.44,1.55c2.47,1.03,4.57,2.52,6.28,4.45,1.71,1.93,3.03,4.28,3.96,7.06.92,2.77,1.39,5.87,1.39,9.3s-.46,6.53-1.39,9.3c-.93,2.77-2.24,5.14-3.96,7.1-1.71,1.96-3.81,3.45-6.28,4.49-2.48,1.03-5.29,1.55-8.44,1.55ZM342.81,75.12c2.39,0,4.24-.73,5.55-2.2,1.31-1.47,1.96-3.56,1.96-6.28v-8.73c0-2.72-.65-4.81-1.96-6.28-1.31-1.47-3.16-2.2-5.55-2.2s-4.24.73-5.55,2.2c-1.31,1.47-1.96,3.56-1.96,6.28v8.73c0,2.72.65,4.81,1.96,6.28,1.31,1.47,3.15,2.2,5.55,2.2Z"/>
    <path class="cls-1" d="M379.11,83.68l-14.03-42.83h11.91l5.3,17.3,4,15.5h.65l4-15.5,5.14-17.3h11.42l-14.03,42.83h-14.36Z"/>
    <path class="cls-1" d="M429.85,84.66c-3.26,0-6.17-.53-8.73-1.59-2.56-1.06-4.72-2.56-6.49-4.49-1.77-1.93-3.1-4.28-4-7.06-.9-2.77-1.35-5.87-1.35-9.3s.43-6.43,1.31-9.18c.87-2.75,2.16-5.1,3.87-7.06,1.71-1.96,3.82-3.47,6.32-4.53,2.5-1.06,5.36-1.59,8.57-1.59,3.53,0,6.57.6,9.1,1.79,2.53,1.2,4.6,2.8,6.2,4.81,1.6,2.01,2.77,4.34,3.51,6.98.73,2.64,1.1,5.4,1.1,8.28v3.59h-27.49v.65c0,2.8.76,5.03,2.28,6.67,1.52,1.65,3.92,2.47,7.18,2.47,2.5,0,4.54-.5,6.12-1.5,1.58-1,3.05-2.2,4.41-3.6l6.04,7.53c-1.9,2.24-4.39,3.98-7.46,5.24-3.07,1.25-6.57,1.88-10.48,1.88ZM429.61,48.77c-2.45,0-4.36.8-5.75,2.41-1.39,1.61-2.08,3.74-2.08,6.4v.65h15.01v-.73c0-2.61-.59-4.72-1.75-6.32-1.17-1.6-2.98-2.41-5.43-2.41Z"/>
    <path class="cls-1" d="M503.77,76.5h-.41c-.33,1.14-.84,2.22-1.55,3.22-.71,1.01-1.56,1.88-2.57,2.61-1.01.73-2.15,1.31-3.43,1.71-1.28.41-2.6.61-3.96.61-5.44,0-9.55-1.92-12.32-5.75-2.77-3.83-4.16-9.39-4.16-16.68s1.39-12.84,4.16-16.64c2.77-3.81,6.88-5.71,12.32-5.71,2.77,0,5.23.76,7.38,2.28,2.15,1.52,3.52,3.48,4.12,5.87h.41v-7.18h12.07v42.83h-12.07v-7.18ZM495.85,74.87c2.28,0,4.17-.56,5.67-1.67,1.5-1.11,2.24-2.65,2.24-4.61v-12.64c0-1.96-.75-3.49-2.24-4.61-1.5-1.11-3.39-1.67-5.67-1.67s-4.17.8-5.67,2.41c-1.5,1.61-2.24,3.77-2.24,6.49v7.42c0,2.72.75,4.88,2.24,6.49,1.5,1.61,3.39,2.41,5.67,2.41Z"/>
    <path class="cls-1" d="M531.5,36.28c-2.45,0-4.23-.56-5.34-1.67-1.12-1.11-1.67-2.54-1.67-4.28v-1.79c0-1.74.56-3.17,1.67-4.28,1.11-1.11,2.9-1.67,5.34-1.67s4.23.56,5.34,1.67c1.11,1.12,1.67,2.54,1.67,4.28v1.79c0,1.74-.56,3.17-1.67,4.28s-2.9,1.67-5.34,1.67ZM525.47,40.85h12.07v42.83h-12.07v-42.83Z"/>
  </g>
</svg>