<?xml version="1.0" encoding="UTF-8"?>
<svg version="1.1" xmlns="http://www.w3.org/2000/svg" width="3623" height="800">
<path d="M0 0 C0.68835937 0.61359375 1.37671875 1.2271875 2.0859375 1.859375 C11.85032618 10.89046967 17.86359692 22.9162825 23 35 C23.3403125 35.78117187 23.680625 36.56234375 24.03125 37.3671875 C24.6989264 38.90655253 25.35208877 40.45221206 26 42 C26.27972656 41.27296875 26.55945312 40.5459375 26.84765625 39.796875 C31.78862737 27.40472879 38.16229936 16.99804623 47 7 C47.55171875 6.36449219 48.1034375 5.72898437 48.671875 5.07421875 C64.32508981 -11.78010908 91.34701698 -23.85715026 114 -26 C114.64517578 -26.06413086 115.29035156 -26.12826172 115.95507812 -26.19433594 C143.66916721 -28.78247026 171.20720568 -24.57377105 193.4777832 -6.91674805 C213.87802402 10.00403486 224.91074333 35.27094555 230.1875 60.75 C230.3424292 61.48629639 230.4973584 62.22259277 230.65698242 62.98120117 C233.91547506 79.80580794 234.28616713 96.65485553 234.22705078 113.72924805 C234.22648523 116.04729202 234.22680604 118.36533636 234.22793579 120.68338013 C234.22850468 126.91555947 234.21682633 133.14766029 234.20278788 139.37982154 C234.19020233 145.9153857 234.18910389 152.45095208 234.18673706 158.98652649 C234.18157951 169.93642522 234.16879293 180.88629675 234.15087891 191.83618164 C234.13246347 203.10440938 234.11833485 214.37262935 234.10986328 225.64086914 C234.10933783 226.33782136 234.10881239 227.03477357 234.10827102 227.75284555 C234.10566056 231.24996019 234.10313323 234.74707489 234.10064721 238.24418962 C234.07998243 267.16281533 234.04314971 296.08139826 234 325 C201.99 325 169.98 325 137 325 C136.95101563 310.00046875 136.90203125 295.0009375 136.8515625 279.546875 C136.81616077 270.02212978 136.78027085 260.4973905 136.7421875 250.97265625 C136.68188257 235.86768979 136.62352243 220.76273445 136.578125 205.65771484 C136.5450457 194.65434996 136.50512811 183.65103406 136.45720994 172.64772344 C136.4321024 166.82879836 136.41027584 161.0099051 136.39665604 155.19094086 C136.38369126 149.69818952 136.36148643 144.20554823 136.33261681 138.7128582 C136.32365231 136.71202483 136.31787735 134.71117379 136.31578636 132.71032143 C136.64666336 95.66779318 136.64666336 95.66779318 120.046875 63.75 C108.5670514 53.93518898 95.35200965 53.08514365 81 54 C68.10517598 55.45517008 52.56133865 61.87637328 44 72 C34.03653466 85.33042949 34.55492932 99.62603637 34.56762695 115.5456543 C34.55860155 117.8329674 34.54827243 120.12027567 34.53674316 122.40757751 C34.50923861 128.59269217 34.49989749 134.77771488 34.49388909 140.96288276 C34.48448842 147.43580735 34.45828363 153.90866372 34.43388367 160.38154602 C34.39521285 171.23799896 34.36684056 182.09442674 34.34643555 192.95092773 C34.32539891 204.12836344 34.2981005 215.30575523 34.26245117 226.4831543 C34.26025235 227.17324731 34.25805352 227.86334033 34.25578807 228.57434525 C34.24471774 232.03667314 34.23352506 235.49900062 34.22227156 238.96132791 C34.12921339 267.64085387 34.05999989 296.3203844 34 325 C1.66 325 -30.68 325 -64 325 C-64.02578125 309.20640625 -64.0515625 293.4128125 -64.078125 277.140625 C-64.10330152 267.11457105 -64.12947886 257.08853613 -64.16015625 247.0625 C-64.20862668 231.16080643 -64.25309769 215.25918474 -64.27099609 199.35742188 C-64.28405289 187.77390916 -64.31111989 176.19052579 -64.35461307 164.60708594 C-64.37713747 158.48071799 -64.39291612 152.35450903 -64.39188385 146.22809601 C-64.39113188 140.4463417 -64.40929606 134.66493764 -64.44116783 128.88327408 C-64.44959575 126.77601599 -64.45146595 124.66871829 -64.44580269 122.56145096 C-64.39827395 102.1347965 -65.68149301 80.02499571 -80 64 C-92.03787334 54.43993852 -105.08324304 52.57289901 -120 54 C-134.8858666 56.28854736 -147.17549108 62.56357507 -156.8203125 74.1953125 C-164.51175056 84.97878596 -166.14341207 96.60413134 -166.15821838 109.50390625 C-166.16315636 110.42954093 -166.16809434 111.35517561 -166.17318195 112.30885983 C-166.18847262 115.39340484 -166.19689459 118.47792918 -166.20532227 121.5625 C-166.21490742 123.78040242 -166.22491788 125.99830304 -166.23532104 128.21620178 C-166.26230704 134.2258554 -166.28335069 140.23551682 -166.30332303 146.2451973 C-166.32522154 152.52993433 -166.3525913 158.81464748 -166.37937927 165.09936523 C-166.42358928 175.64419512 -166.46443327 186.18903389 -166.50268555 196.73388672 C-166.54208452 207.59229489 -166.5835212 218.45069215 -166.62768555 229.30908203 C-166.63040982 229.97905425 -166.63313409 230.64902647 -166.63594092 231.33930087 C-166.64962112 234.70055196 -166.66334125 238.06180289 -166.67708123 241.42305374 C-166.79082104 269.28201455 -166.8969535 297.14099744 -167 325 C-199.01 325 -231.02 325 -264 325 C-264 211.48 -264 97.96 -264 -19 C-231.99 -19 -199.98 -19 -167 -19 C-167 0.14 -167 19.28 -167 39 C-165.68 39 -164.36 39 -163 39 C-162.9278125 38.19949219 -162.855625 37.39898437 -162.78125 36.57421875 C-161.75309475 31.8704085 -159.75586513 28.04151307 -157.5 23.8125 C-156.83266846 22.55155518 -156.83266846 22.55155518 -156.15185547 21.26513672 C-152.4458093 14.45037027 -148.19875749 8.76515909 -143 3 C-142.32453125 2.14664062 -141.6490625 1.29328125 -140.953125 0.4140625 C-127.12581264 -16.67649558 -105.456855 -23.88630512 -84.38671875 -26.4375 C-52.91448255 -29.1418812 -23.23894524 -22.22855632 0 0 Z " fill="#FEFEFE" transform="translate(1646,345)"/>
<path d="M0 0 C1.59172531 0.00323273 1.59172531 0.00323273 3.21560669 0.00653076 C18.44889384 0.05620999 33.39579217 0.26295577 48.375 3.3125 C49.37321777 3.51117676 50.37143555 3.70985352 51.39990234 3.91455078 C79.00946874 9.58425869 105.5369866 19.49454871 128.375 36.3125 C128.9004541 36.69277344 129.4259082 37.07304687 129.96728516 37.46484375 C140.42306037 45.08675384 149.41382314 54.00909253 158.375 63.3125 C157.02268813 66.34227429 155.52019457 68.39722613 153.14453125 70.703125 C152.18643555 71.64478516 152.18643555 71.64478516 151.20898438 72.60546875 C150.54189453 73.25128906 149.87480469 73.89710938 149.1875 74.5625 C147.87893952 75.83590512 146.57294451 77.11195186 145.26953125 78.390625 C144.69050049 78.95168945 144.11146973 79.51275391 143.51489258 80.09082031 C141.67869077 81.99720211 139.95432507 83.94349356 138.22827148 85.94824219 C133.96206628 90.8538638 129.41229214 95.45544728 124.828125 100.0625 C123.93510681 100.96121826 123.04208862 101.85993652 122.12200928 102.78588867 C120.24759203 104.66969625 118.37198394 106.55223425 116.49462891 108.43310547 C114.08810665 110.84516869 111.6910452 113.26641812 109.29591751 115.68978882 C107.00069005 118.00804174 104.69496276 120.31580793 102.390625 122.625 C101.53124329 123.49672852 100.67186157 124.36845703 99.78643799 125.26660156 C98.98840759 126.06163086 98.1903772 126.85666016 97.36816406 127.67578125 C96.66757874 128.38001221 95.96699341 129.08424316 95.24517822 129.80981445 C93.375 131.3125 93.375 131.3125 90.375 131.3125 C88.97265625 129.9140625 88.97265625 129.9140625 87.4375 127.9375 C69.44179678 106.59113237 41.18636345 93.55404469 13.80297852 90.48022461 C8.39295809 90.10650072 2.9719924 90.08689317 -2.44873047 90.07226562 C-4.59253048 90.0626457 -6.73533363 90.03158845 -8.87890625 90 C-27.52803914 89.8567657 -46.47524062 92.96272477 -60.5234375 106.0859375 C-68.32091464 114.14662062 -70.74944762 124.30579898 -70.625 135.3125 C-69.76530032 146.4753697 -67.30868261 157.6336977 -58.625 165.3125 C-46.19651202 175.063705 -28.9620143 178.03868212 -13.74484253 180.4133606 C-11.10034659 180.82610254 -8.45942497 181.25751306 -5.81860352 181.69311523 C-1.29244114 182.43736553 3.23587238 183.16738438 7.76501465 183.89324951 C41.49751177 189.31181091 75.01511637 194.78097739 105.375 211.3125 C106.41914063 211.86550781 107.46328125 212.41851562 108.5390625 212.98828125 C124.24742627 221.67140054 137.38709278 233.41118681 147.375 248.3125 C147.973125 249.20453125 148.57125 250.0965625 149.1875 251.015625 C169.09442392 282.8311552 170.52986906 325.81661384 162.4609375 361.484375 C153.33913816 397.8232504 131.64166851 427.11044022 99.47753906 446.45361328 C74.29298137 461.08113402 46.15627126 468.16474441 17.375 471.3125 C16.18132812 471.44398438 14.98765625 471.57546875 13.7578125 471.7109375 C-22.48055573 474.80751862 -58.99730055 471.41075608 -93.625 460.3125 C-94.67929199 459.97677979 -94.67929199 459.97677979 -95.75488281 459.63427734 C-124.25539414 450.33096563 -150.57604139 432.32797186 -172.13134766 411.734375 C-173.15865066 410.75643896 -174.19258883 409.78544091 -175.23193359 408.8203125 C-176.81338619 407.35158299 -178.37718434 405.86613043 -179.9375 404.375 C-180.86175781 403.49972656 -181.78601563 402.62445312 -182.73828125 401.72265625 C-184.625 399.3125 -184.625 399.3125 -184.45535278 397.39459229 C-183.44174457 394.85299084 -182.17516579 393.50820423 -180.22607422 391.58886719 C-179.50797577 390.87422302 -178.78987732 390.15957886 -178.05001831 389.42327881 C-176.87670456 388.27789642 -176.87670456 388.27789642 -175.6796875 387.109375 C-174.8764505 386.31275452 -174.0732135 385.51613403 -173.24563599 384.69537354 C-170.67074064 382.14390476 -168.08594485 379.60276528 -165.5 377.0625 C-162.93716308 374.53488279 -160.37651892 372.00510161 -157.81863403 369.47247314 C-156.22689838 367.89752097 -154.63207879 366.32567726 -153.03366089 364.75750732 C-148.89753286 360.67614485 -144.96671238 356.50001081 -141.17773438 352.0947876 C-139.14069644 349.75659795 -136.98507993 347.5597518 -134.78515625 345.375 C-133.95048828 344.54355469 -133.11582031 343.71210937 -132.25585938 342.85546875 C-131.40830078 342.01628906 -130.56074219 341.17710937 -129.6875 340.3125 C-128.81287109 339.44238281 -127.93824219 338.57226562 -127.03710938 337.67578125 C-124.90202551 335.55236451 -122.76462795 333.43133622 -120.625 331.3125 C-116.76473 333.09200648 -114.30992296 335.56046298 -111.4375 338.625 C-99.85227457 350.53203725 -86.40253461 359.81455938 -71.625 367.3125 C-70.66207031 367.80234375 -69.69914062 368.2921875 -68.70703125 368.796875 C-51.43580081 377.06257465 -31.76240711 381.71200837 -12.625 382.3125 C-11.48417969 382.35246094 -10.34335938 382.39242188 -9.16796875 382.43359375 C11.58717588 382.80305706 35.7849514 380.27605948 51.56640625 365.34765625 C61.42131855 354.2582193 65.78704776 341.01698677 65.5859375 326.3359375 C64.78371487 314.8374132 61.20427487 303.53541709 52.6875 295.4375 C40.58785625 285.85385023 24.26766781 283.10042421 9.35536957 281.22101212 C7.09408119 280.93548984 4.83501939 280.63582064 2.57598877 280.33297729 C-3.04049399 279.58259596 -8.65959787 278.85281189 -14.27929688 278.12695312 C-47.83337802 273.7905437 -80.51764723 268.66556394 -110.625 252.3125 C-111.68074219 251.75949219 -112.73648438 251.20648438 -113.82421875 250.63671875 C-121.98514246 246.16687949 -128.74911591 240.5110028 -135.625 234.3125 C-136.28113281 233.74015625 -136.93726563 233.1678125 -137.61328125 232.578125 C-157.13772647 214.49820914 -167.38433024 187.20017589 -170.625 161.3125 C-170.73585937 160.51972656 -170.84671875 159.72695313 -170.9609375 158.91015625 C-175.24286329 122.28233155 -167.20623965 85.71254626 -144.23779297 56.55126953 C-137.75931448 48.43963398 -130.96895076 41.5551923 -122.625 35.3125 C-121.85800781 34.68472656 -121.09101562 34.05695313 -120.30078125 33.41015625 C-98.27502485 16.06620314 -69.1603691 6.14002071 -41.625 2.3125 C-40.38331055 2.13807373 -39.14162109 1.96364746 -37.86230469 1.78393555 C-25.24721792 0.13741678 -12.70800582 -0.04642806 0 0 Z " fill="#FEFEFE" transform="translate(184.625,205.6875)"/>
<path d="M0 0 C2.56528434 2.51260909 4.80223397 5.16201517 7 8 C7.75796875 8.97195313 8.5159375 9.94390625 9.296875 10.9453125 C34.94909525 44.83369711 44.04852951 89.23185354 44.203125 131.03125 C44.20882507 132.26121704 44.21452515 133.49118408 44.22039795 134.75842285 C44.22980091 137.35700637 44.23636309 139.95560157 44.24023438 142.55419922 C44.2498354 146.43349527 44.28086156 150.31223649 44.3125 154.19140625 C44.5239215 203.98057485 35.72139577 257.83192922 0.53515625 295.5625 C-24.18453846 319.32997227 -55.80634268 328.46191043 -89.48095703 328.30029297 C-116.3053424 327.72670276 -140.9463178 318.08783879 -160 299 C-169.13532867 289.38764568 -178.06933447 276.38420836 -180 263 C-180.99 263 -181.98 263 -183 263 C-183 324.71 -183 386.42 -183 450 C-215.01 450 -247.02 450 -280 450 C-280 293.58 -280 137.16 -280 -24 C-247.99 -24 -215.98 -24 -183 -24 C-183 -4.86 -183 14.28 -183 34 C-182.01 34 -181.02 34 -180 34 C-179.835 32.845 -179.67 31.69 -179.5 30.5 C-176.87054638 18.77856241 -170.0258612 7.75404585 -162 -1 C-161.39800781 -1.68191406 -160.79601563 -2.36382812 -160.17578125 -3.06640625 C-142.75321959 -21.73082765 -117.59408351 -30.62489384 -92.60888672 -31.91845703 C-57.93410436 -33.00224678 -26.12570453 -23.17409822 0 0 Z M-172.73046875 67.8984375 C-181.48647683 78.83804265 -183.31037071 91.27018708 -183.2746582 104.94067383 C-183.27976913 105.97317764 -183.28488007 107.00568146 -183.29014587 108.06947327 C-183.30393167 111.4487199 -183.30309331 114.82776002 -183.30078125 118.20703125 C-183.30467443 120.57915827 -183.30901037 122.95128459 -183.31376648 125.32341003 C-183.32120521 130.28341944 -183.32095461 135.24335763 -183.31567383 140.20336914 C-183.30988473 146.52760679 -183.32680849 152.85155104 -183.3500185 159.17574024 C-183.36482344 164.0719724 -183.36561832 168.96813502 -183.36250877 173.8643856 C-183.36301867 176.19454211 -183.36819329 178.52470286 -183.37832069 180.85483742 C-183.6039028 207.74336608 -183.6039028 207.74336608 -170.8125 230.75 C-153.68633832 246.41462928 -133.15700394 248.97858334 -110.97412109 248.1953125 C-105.1968185 247.81591322 -100.26216257 246.46543488 -95 244 C-93.60201172 243.38125 -93.60201172 243.38125 -92.17578125 242.75 C-75.76917306 234.69543085 -65.83439943 220.5920729 -59.97265625 203.7421875 C-57.05139312 192.50295023 -56.68818275 181.63698406 -56.69921875 170.109375 C-56.69531968 168.39365538 -56.69098258 166.67793671 -56.68623352 164.96221924 C-56.67881529 161.38184468 -56.67902986 157.8015688 -56.68432617 154.22119141 C-56.69010696 149.67840821 -56.67320186 145.13603459 -56.6499815 140.59331894 C-56.63510326 137.05324014 -56.63439152 133.5132567 -56.63749123 129.97315216 C-56.6369848 128.30055177 -56.63187777 126.62794505 -56.62167931 124.95537567 C-56.51466299 104.95038208 -59.32615934 86.20589461 -72 70 C-73.0828125 68.4840625 -73.0828125 68.4840625 -74.1875 66.9375 C-83.70991015 55.98361643 -98.03958735 49.00356251 -112.44702148 47.79467773 C-134.48640077 46.95255936 -157.13910884 50.79369503 -172.73046875 67.8984375 Z " fill="#FEFEFE" transform="translate(2239,350)"/>
<path d="M0 0 C0.81726562 0.73605469 1.63453125 1.47210938 2.4765625 2.23046875 C36.02800657 33.82573322 46.06907254 82.03608811 49 126 C49 138.87 49 151.74 49 165 C-23.6 165 -96.2 165 -171 165 C-169.71629641 188.10666464 -166.87736041 209.85656418 -149 226 C-134.3049906 238.48338592 -115.28849774 241.54294617 -96.5625 241.375 C-95.27279297 241.38660156 -93.98308594 241.39820313 -92.65429688 241.41015625 C-65.29041137 241.32794127 -43.86790462 229.97062058 -24 212 C-23.46375 211.51869629 -22.9275 211.03739258 -22.375 210.54150391 C-19.22945794 207.71637613 -16.10558761 204.86908996 -13 202 C-9.87784572 203.35727511 -8.06836881 204.78281963 -5.93359375 207.421875 C-5.37148193 208.11031494 -4.80937012 208.79875488 -4.23022461 209.50805664 C-3.34282593 210.6178186 -3.34282593 210.6178186 -2.4375 211.75 C-1.81689697 212.51497803 -1.19629395 213.27995605 -0.55688477 214.06811523 C3.63876611 219.25541641 7.77579545 224.48890039 11.87841797 229.75 C16.48911791 235.65656174 21.22665225 241.45803461 25.9609375 247.265625 C29.67181716 251.818937 33.34271053 256.40352744 37 261 C31.57505699 277.88096792 5.82835483 291.33139517 -8.953125 299.125 C-55.54899176 322.66715843 -116.91104498 327.92430305 -166.70678711 311.6262207 C-204.49653223 298.60640739 -235.21943034 272.9732433 -253 237 C-260.17663629 221.89395872 -265.04461191 205.82774844 -268.25 189.4375 C-268.40106201 188.67276367 -268.55212402 187.90802734 -268.70776367 187.12011719 C-271.52609285 171.66302024 -272.38350893 156.12060068 -272.3125 140.4375 C-272.31034485 139.57114929 -272.3081897 138.70479858 -272.30596924 137.81219482 C-272.13260035 94.10018673 -263.39112644 47.06698747 -234 13 C-233.2265625 12.10023438 -232.453125 11.20046875 -231.65625 10.2734375 C-229.47946607 7.80591873 -227.2550263 5.39596544 -225 3 C-224.1028125 2.00613281 -224.1028125 2.00613281 -223.1875 0.9921875 C-197.58103028 -26.26987293 -157.69736987 -38.33491111 -121.28955078 -39.91088867 C-76.19841714 -41.11097881 -33.67254882 -31.34448682 0 0 Z M-135 37 C-135.94617187 37.38929688 -136.89234375 37.77859375 -137.8671875 38.1796875 C-152.21466866 45.04859491 -162.08581675 58.3327563 -167.3125 73.0625 C-170.83778606 84.7731069 -171 94.26959561 -171 107 C-131.73 107 -92.46 107 -52 107 C-52 84.07222597 -54.9251861 63.05798104 -71.125 45.7265625 C-83.66262593 33.68148616 -98.76119792 32.39928234 -115.30859375 32.6875 C-122.3625448 32.96635822 -128.44363587 34.27816737 -135 37 Z " fill="#FEFEFE" transform="translate(3546,358)"/>
<path d="M0 0 C23.31124946 22.79314004 36.66349984 52.18451623 43.34570312 83.80737305 C43.5405127 84.72768311 43.73532227 85.64799316 43.93603516 86.59619141 C49.14863661 112.83142119 47.53320312 137.21065392 47.53320312 164.55737305 C-24.73679687 164.55737305 -97.00679687 164.55737305 -171.46679688 164.55737305 C-170.11339255 190.27205528 -167.32850068 208.70800418 -148.38476562 226.5144043 C-134.00758771 238.75767825 -115.14535147 241.09647234 -96.96679688 240.93237305 C-95.68160156 240.94397461 -94.39640625 240.95557617 -93.07226562 240.9675293 C-60.03936562 240.86793261 -36.45293546 223.32263614 -13.46679688 201.55737305 C-10.45493668 202.87947595 -8.66139556 204.19126808 -6.61914062 206.76049805 C-6.10222656 207.40374023 -5.5853125 208.04698242 -5.05273438 208.7097168 C-4.50875 209.40194336 -3.96476562 210.09416992 -3.40429688 210.80737305 C-2.83066406 211.52538086 -2.25703125 212.24338867 -1.66601562 212.9831543 C0.07563696 215.16792646 1.80632986 217.36090703 3.53320312 219.55737305 C4.01772949 220.17290039 4.50225586 220.78842773 5.00146484 221.42260742 C6.79198336 223.69947895 8.58070917 225.97769564 10.36303711 228.26098633 C13.90097582 232.78499188 17.52149721 237.23756884 21.15820312 241.68237305 C26.46836691 248.17737154 31.57356378 254.79073332 36.53320312 261.55737305 C17.76936045 290.27921996 -20.57593493 306.80990612 -52.81787109 314.01049805 C-66.49162449 316.83346649 -80.4916481 319.218239 -94.46679688 319.55737305 C-95.35318848 319.5831543 -96.23958008 319.60893555 -97.15283203 319.63549805 C-143.2935215 320.82872745 -188.08011848 310.81152237 -222.66992188 278.70581055 C-248.98459742 253.61391964 -262.40336201 221.77411938 -269.46679688 186.55737305 C-269.64758789 185.66147461 -269.82837891 184.76557617 -270.01464844 183.8425293 C-275.44694771 155.11506196 -275.24785738 121.20505256 -269.46679688 92.55737305 C-269.26280273 91.54030273 -269.05880859 90.52323242 -268.84863281 89.4753418 C-260.12140117 47.45251463 -240.30333845 8.58406271 -203.76367188 -15.75512695 C-197.27139931 -19.90736631 -190.49685823 -23.30680005 -183.46679688 -26.44262695 C-182.27957031 -26.98532227 -181.09234375 -27.52801758 -179.86914062 -28.0871582 C-122.50422241 -52.74346146 -45.75266523 -43.26153085 0 0 Z M-152.56445312 47.4284668 C-168.2849274 65.02119468 -171.46679688 83.11150294 -171.46679688 106.55737305 C-132.19679688 106.55737305 -92.92679688 106.55737305 -52.46679688 106.55737305 C-52.46679688 83.89381257 -55.85016392 61.90255553 -72.04492188 44.78393555 C-85.42244412 32.48524574 -101.57535024 31.97404419 -118.77880859 32.42993164 C-131.193373 33.01852407 -143.54420214 38.90404356 -152.56445312 47.4284668 Z " fill="#FEFEFE" transform="translate(1102.466796875,358.442626953125)"/>
<path d="M0 0 C1.00417969 0.36738281 2.00835938 0.73476563 3.04296875 1.11328125 C21.35523435 8.30473778 36.70136974 18.52956979 51 32 C51.66386719 32.59941406 52.32773438 33.19882812 53.01171875 33.81640625 C82.50371258 61.51375543 97.43732512 108.11824678 99.10714722 147.52885437 C99.16376079 150.28261357 99.19084493 153.03474739 99.203125 155.7890625 C99.20882507 156.80938568 99.21452515 157.82970886 99.22039795 158.88095093 C99.22980267 161.03748556 99.23636381 163.19403427 99.24023438 165.35058594 C99.24982801 168.56733189 99.2808484 171.78340657 99.3125 175 C99.56677171 224.58226979 85.04962847 271.38621387 51 308 C50.39800781 308.66773438 49.79601563 309.33546875 49.17578125 310.0234375 C23.73668933 337.06281937 -15.84214301 348.79430901 -51.98779297 350.10864258 C-97.50949569 351.01341714 -139.16500003 340.93038077 -173 309 C-173.73734375 308.32710937 -174.4746875 307.65421875 -175.234375 306.9609375 C-209.41498705 274.59844311 -221.4630446 223.25479776 -223 178 C-223.03504639 176.99428955 -223.03504639 176.99428955 -223.07080078 175.96826172 C-224.52668947 126.55368693 -212.62240525 72.9311068 -177.88647461 36.04833984 C-176.59408143 34.69592558 -175.29720577 33.34779882 -174 32 C-173.14728516 31.05253906 -173.14728516 31.05253906 -172.27734375 30.0859375 C-147.21805462 3.03985051 -107.32186023 -8.04702603 -71.71899414 -9.80639648 C-47.43034962 -10.7075695 -22.91737627 -8.43504789 0 0 Z M-105 84 C-116.68622451 98.34218463 -121.1362175 114.99115032 -121.16113281 133.20727539 C-121.16609772 134.09143127 -121.17106262 134.97558716 -121.17617798 135.88653564 C-121.19069301 138.79025067 -121.19758483 141.69391101 -121.203125 144.59765625 C-121.20595238 145.59762571 -121.20877975 146.59759518 -121.21169281 147.62786674 C-121.2266446 152.92305639 -121.23589854 158.21821909 -121.24023438 163.51342773 C-121.24570344 168.94421027 -121.26971007 174.37474014 -121.29820633 179.80544376 C-121.31696321 184.0154438 -121.32204527 188.22538464 -121.32357025 192.4354229 C-121.32656951 194.43541274 -121.33450403 196.43540223 -121.34775543 198.43535042 C-121.48405119 220.59231326 -118.8143723 241.03202668 -103.12890625 258.02734375 C-91.82480651 268.76741356 -76.87545751 272.58505823 -61.6875 272.4375 C-60.59171631 272.42992676 -59.49593262 272.42235352 -58.36694336 272.41455078 C-45.78807004 272.15930296 -35.33570556 269.46266852 -25 262 C-24.30390625 261.49855469 -23.6078125 260.99710938 -22.890625 260.48046875 C-9.25070192 249.61611141 -3.89552166 232.73063005 -2 216 C-1.62284004 209.18193174 -1.69358749 202.34560239 -1.69921875 195.51953125 C-1.69532169 193.53716443 -1.69098498 191.55479843 -1.68623352 189.57243347 C-1.67880638 185.43131802 -1.67903629 181.29028786 -1.68432617 177.14916992 C-1.69010562 171.88906502 -1.67320934 166.62931399 -1.6499815 161.36926746 C-1.63511816 157.27756266 -1.63438961 153.18594052 -1.63749123 149.09421349 C-1.63698398 147.15728749 -1.63186076 145.22035611 -1.62167931 143.2834568 C-1.51705305 120.59354632 -4.09943146 99.8361799 -20 82.375 C-32.13666614 70.72705867 -48.19998137 67.48159793 -64.47485352 67.57788086 C-79.30850608 68.00668041 -94.67272609 72.84953759 -105 84 Z " fill="#FEFEFE" transform="translate(2804,328)"/>
<path d="M0 0 C31.68 0 63.36 0 96 0 C100.49990308 11.2497577 100.49990308 11.2497577 102.18798828 16.80834961 C102.57076935 18.06110184 102.95355042 19.31385406 103.34793091 20.60456848 C103.75544534 21.95381063 104.16290419 23.30306956 104.5703125 24.65234375 C105.00773077 26.08884066 105.44555676 27.52521347 105.88375854 28.96147156 C107.05822066 32.81500599 108.22731456 36.67014639 109.39471436 40.5258255 C111.38515843 47.09901129 113.38035319 53.67075876 115.37535858 60.24256134 C115.88160271 61.91057509 116.3876084 63.57866122 116.89337921 65.24681854 C120.09449636 75.80307086 123.34773522 86.33967118 126.6796875 96.85546875 C138.67764508 134.88946315 148.54042809 173.37626375 158.22085571 212.05322266 C161.47071765 225.01630774 164.8557956 237.94076992 168.33143616 250.84510803 C168.5123562 251.52007639 168.69327625 252.19504475 168.87967873 252.89046669 C169.36423264 254.69733726 169.85173657 256.50341599 170.33946228 258.30943298 C171 261 171 261 171 263 C172.32 263 173.64 263 175 263 C175.34230652 261.40986084 175.34230652 261.40986084 175.69152832 259.78759766 C178.27397237 247.91307742 181.18293322 236.14079836 184.21875 224.375 C184.72246934 222.41628495 185.22608828 220.45754407 185.72961426 218.4987793 C186.78313737 214.40375246 187.83904766 210.30934993 188.89648438 206.21533203 C189.95506658 202.11573623 191.00978022 198.01518011 192.06054688 193.91357422 C201.98344828 155.18454717 212.87028652 116.78487146 224.38018417 78.50043869 C226.31707046 72.05388231 228.24588802 65.60490249 230.17578125 59.15625 C230.38502039 58.45739622 230.59425953 57.75854244 230.80983925 57.03851128 C235.16340888 42.49507959 239.43890191 27.92922488 243.66210938 13.34741211 C243.88691483 12.57357178 244.11172028 11.79973145 244.34333801 11.00244141 C244.75317525 9.59123895 245.16141786 8.17957189 245.56767273 6.76733398 C246.25084427 4.41627393 246.90251076 2.19497849 248 0 C278.36 0 308.72 0 340 0 C338.87503115 7.87478194 338.87503115 7.87478194 337.75097656 11.27709961 C337.37098007 12.44188591 337.37098007 12.44188591 336.98330688 13.63020325 C336.70522186 14.46250961 336.42713684 15.29481598 336.140625 16.15234375 C335.84441254 17.05478317 335.54820007 17.9572226 335.24301147 18.88700867 C334.25077135 21.90565715 333.25031241 24.92151782 332.25 27.9375 C331.53636544 30.10381254 330.82332752 32.27032171 330.11083984 34.43701172 C328.56665159 39.13033932 327.01927171 43.82259853 325.46972656 48.51416016 C322.93650985 56.18733739 320.41601396 63.86464966 317.8984375 71.54296875 C317.68362669 72.19806301 317.46881588 72.85315727 317.24749565 73.52810287 C316.37161574 76.19922121 315.49575595 78.87034613 314.6199789 81.54149818 C313.05598106 86.31151563 311.4908347 91.08115515 309.92504883 95.85058594 C304.25347349 113.12659834 298.59085598 130.40551487 292.9375 147.6875 C286.8438779 166.31504496 280.74276236 184.94011942 274.63521576 203.56310272 C268.3947578 222.59148145 262.15710548 241.6207734 255.92843628 260.65301514 C254.82441437 264.0260984 253.71997441 267.39904457 252.61547852 270.77197266 C249.18705124 281.24413785 245.76425938 291.71808336 242.35597229 302.19682312 C240.76601651 307.08462657 239.17398758 311.97175374 237.58187866 316.8588562 C236.82328967 319.18964763 236.06580997 321.5208004 235.30947876 323.85232544 C234.2701839 327.056071 233.22728451 330.25862182 232.18359375 333.4609375 C231.87410797 334.41841385 231.56462219 335.3758902 231.24575806 336.36238098 C230.96283905 337.22812241 230.67992004 338.09386383 230.38842773 338.98583984 C230.14293686 339.74150238 229.89744598 340.49716492 229.64451599 341.27572632 C229 343 229 343 228 344 C226.49448826 344.09575309 224.9844897 344.12188187 223.47593689 344.12025452 C222.00981209 344.12231651 222.00981209 344.12231651 220.5140686 344.12442017 C219.43297821 344.12082489 218.35188782 344.11722961 217.23803711 344.11352539 C215.54069679 344.11374443 215.54069679 344.11374443 213.80906677 344.1139679 C210.04847329 344.11326819 206.28792863 344.10547311 202.52734375 344.09765625 C199.92802457 344.09579227 197.32870503 344.09436828 194.72938538 344.09336853 C188.57411423 344.08993341 182.4188634 344.08204256 176.26359993 344.07201904 C169.25766654 344.06085694 162.25173233 344.05534721 155.24579227 344.05032361 C140.83051867 344.03985992 126.41525996 344.02226108 112 344 C109.98065724 337.95327089 107.96244227 331.90616613 105.94493103 325.85882568 C105.26164449 323.8111361 104.57812039 321.76352577 103.89433289 319.71600342 C99.39574605 306.24483439 94.94349595 292.75987347 90.5625 279.25 C90.22656326 278.21556763 89.89062653 277.18113525 89.54450989 276.11535645 C89.0003151 274.43941561 88.45633122 272.76340627 87.91261292 271.08731079 C82.62780481 254.80346334 77.26844485 238.54406582 71.91706848 222.28200912 C64.86140005 200.84060768 57.80971496 179.39806817 50.8125 157.9375 C44.99489591 140.09542827 39.15323076 122.26133857 33.29990387 104.43096161 C32.18466562 101.03360809 31.06962312 97.63619033 29.95458984 94.23876953 C29.62488379 93.23418261 29.62488379 93.23418261 29.288517 92.20930099 C26.85885213 84.80625291 24.42929158 77.40317059 22 70 C21.78247322 69.33710716 21.56494644 68.67421432 21.34082794 67.99123383 C18.59621425 59.62707411 15.85308512 51.26243041 13.11224365 42.89703369 C12.33959706 40.5394319 11.56653747 38.18196541 10.79302979 35.824646 C0 2.92993388 0 2.92993388 0 0 Z " fill="#FEFEFE" transform="translate(2920,326)"/>
<path d="M0 0 C29.04 0 58.08 0 88 0 C88 30.36 88 60.72 88 92 C110.44 92 132.88 92 156 92 C156 117.08 156 142.16 156 168 C133.56 168 111.12 168 88 168 C88 231.36 88 294.72 88 360 C108.46 360 128.92 360 150 360 C150 385.08 150 410.16 150 436 C133.0771875 436.0928125 133.0771875 436.0928125 115.8125 436.1875 C112.29698486 436.21481201 108.78146973 436.24212402 105.15942383 436.27026367 C74.1607206 436.41104262 40.65685443 435.03750606 16.97265625 412.14672852 C15.62583229 410.78650215 14.31210943 409.39374295 13 408 C12.26394531 407.22140625 11.52789063 406.4428125 10.76953125 405.640625 C2.64519937 396.2748575 -2.49570069 384.83980546 -5.875 373 C-6.16153442 372.00709961 -6.16153442 372.00709961 -6.45385742 370.99414062 C-10.00242392 357.43716821 -10.29013796 343.57123994 -10.22705078 329.66015625 C-10.22648503 327.88441982 -10.22680642 326.10868293 -10.22793579 324.33294678 C-10.22850391 319.56540908 -10.21683842 314.79797436 -10.20278788 310.03046036 C-10.19018915 305.02836902 -10.18910287 300.02627468 -10.18673706 295.02416992 C-10.18054893 285.57570021 -10.16417463 276.1272774 -10.14403808 266.67882824 C-10.12159552 255.91204229 -10.11066474 245.14525396 -10.10064721 234.37845039 C-10.07980571 212.25226836 -10.04316326 190.12615053 -10 168 C-25.84 168 -41.68 168 -58 168 C-58 142.92 -58 117.84 -58 92 C-46.78 91.67 -35.56 91.34 -24 91 C-14.08236291 88.37144602 -14.08236291 88.37144602 -7 82 C-2.76262351 73.9765001 -0.91980921 66.48906611 -0.79467773 57.44384766 C-0.77449585 56.14519775 -0.75431396 54.84654785 -0.73352051 53.50854492 C-0.71675721 52.14371893 -0.70011391 50.77889146 -0.68359375 49.4140625 C-0.66494263 48.16197998 -0.6462915 46.90989746 -0.6270752 45.61987305 C-0.55891799 40.95498527 -0.49867975 36.2899845 -0.4375 31.625 C-0.293125 21.18875 -0.14875 10.7525 0 0 Z " fill="#FEFEFE" transform="translate(632,234)"/>
<path d="M0 0 C32.01 0 64.02 0 97 0 C97 24.75 97 49.5 97 75 C97.99 75 98.98 75 100 75 C100.04125 73.845 100.0825 72.69 100.125 71.5 C101.95425059 55.34161978 111.4015543 38.89336857 122 27 C122.66515625 26.24074219 123.3303125 25.48148437 124.015625 24.69921875 C138.94698958 8.68947783 158.66151083 2.13384892 180 0 C188.25 0 196.5 0 205 0 C205 30.03 205 60.06 205 91 C189.16 91.495 189.16 91.495 173 92 C136.82641569 93.83833808 136.82641569 93.83833808 106.75 112.25 C96.32214863 125.22814111 97.69782639 143.59366862 97.68115234 159.29418945 C97.67183809 161.31578973 97.66166722 163.33738622 97.65071106 165.35897827 C97.62356578 170.81050591 97.60830784 176.26200793 97.59528303 181.71358514 C97.57958435 187.42441743 97.55281581 193.13519793 97.5272522 198.84599304 C97.4805832 209.64386895 97.4437818 220.44175472 97.41057932 231.23967952 C97.36510216 245.84245649 97.30427293 260.44516914 97.24433136 275.04789257 C97.15038852 298.03189603 97.07686307 321.01591837 97 344 C64.99 344 32.98 344 0 344 C0 230.48 0 116.96 0 0 Z " fill="#FEFEFE" transform="translate(2346,326)"/>
<path d="M0 0 C32.34 0 64.68 0 98 0 C98 113.52 98 227.04 98 344 C65.66 344 33.32 344 0 344 C0 230.48 0 116.96 0 0 Z " fill="#FFFFFF" transform="translate(1208,326)"/>
<path d="M0 0 C32.34 0 64.68 0 98 0 C98 113.52 98 227.04 98 344 C65.66 344 33.32 344 0 344 C0 230.48 0 116.96 0 0 Z " fill="#FFFFFF" transform="translate(417,326)"/>
<path d="M0 0 C8.99125311 8.04208052 13.92767662 20.41307823 14.59765625 32.2578125 C15.31433496 51.41168754 15.63424907 70.57546091 2.03515625 85.6953125 C-12.01300914 98.23639501 -31.08249262 100.3640767 -49.16601562 99.41748047 C-63.65087401 98.38329953 -78.52221221 94.94308779 -88.65625 83.67578125 C-100.90134503 66.71892706 -101.31111901 45.87286768 -98.83984375 25.6953125 C-96.6644731 15.2748307 -91.10243689 4.56714834 -82.40234375 -1.7421875 C-58.77942885 -16.64604441 -22.80806304 -16.54048149 0 0 Z " fill="#FEFEFE" transform="translate(1299.40234375,191.7421875)"/>
<path d="M0 0 C8.99125311 8.04208052 13.92767662 20.41307823 14.59765625 32.2578125 C15.31433496 51.41168754 15.63424907 70.57546091 2.03515625 85.6953125 C-12.01300914 98.23639501 -31.08249262 100.3640767 -49.16601562 99.41748047 C-63.65087401 98.38329953 -78.52221221 94.94308779 -88.65625 83.67578125 C-100.90134503 66.71892706 -101.31111901 45.87286768 -98.83984375 25.6953125 C-96.6644731 15.2748307 -91.10243689 4.56714834 -82.40234375 -1.7421875 C-58.77942885 -16.64604441 -22.80806304 -16.54048149 0 0 Z " fill="#FEFEFE" transform="translate(508.40234375,191.7421875)"/>
<path d="M0 0 C1.32 0 2.64 0 4 0 C3.625 2.4375 3.625 2.4375 3 5 C2.01 5.495 2.01 5.495 1 6 C0.67 4.02 0.34 2.04 0 0 Z " fill="#FFFFFF" transform="translate(3597,248)"/>
<path d="M0 0 C-2.35438733 1.42944945 -3.48032433 2.08661261 -6.25 1.625 C-6.8275 1.41875 -7.405 1.2125 -8 1 C-3.375 -1.125 -3.375 -1.125 0 0 Z " fill="#FEFEFE" transform="translate(3547,224)"/>
<path d="M0 0 C2 1 2 1 2 1 Z " fill="#FFFFFF" transform="translate(3618,167)"/>
<path d="M0 0 C2 1 2 1 2 1 Z " fill="#FFFFFF" transform="translate(3587,161)"/>
<path d="M0 0 C2 1 2 1 2 1 Z " fill="#FFFFFF" transform="translate(3591,160)"/>
</svg>
